<svg width="120" height="38" viewBox="0 0 120 38" fill="none" xmlns="http://www.w3.org/2000/svg">
<path d="M104.195 25.4308C104.247 24.9498 104.278 24.4639 104.278 23.9719C104.278 16.524 98.1061 10.4897 90.4913 10.4897C82.8787 10.4897 76.7075 16.524 76.7075 23.9719C76.7075 31.4175 82.8788 37.4494 90.4913 37.4494C96.2824 37.4494 101.233 33.9648 103.279 29.014L97.3367 27.9729C96.0204 30.3817 93.5297 32.0043 90.6827 32.0043C86.9035 32.0043 83.774 29.162 83.1445 25.4307L104.195 25.4308ZM90.6828 16.0852C93.9098 16.0852 96.666 18.1633 97.791 21.1049H83.566C84.6879 18.1634 87.4502 16.0852 90.6828 16.0852Z" fill="#005BAA"/>
<path d="M73.002 11.0544H65.9617V36.9653H73.002V11.0544Z" fill="#005BAA"/>
<path d="M69.4844 0.489502C67.3111 0.489502 65.5565 2.25368 65.5565 4.41791C65.5565 6.57882 67.3111 8.3383 69.4844 8.3383C71.6489 8.3383 73.4074 6.57882 73.4074 4.41791C73.4074 2.25368 71.6489 0.489502 69.4844 0.489502Z" fill="#005BAA"/>
<path d="M22.8711 2.74683V16.6954H7.69576V2.74683H0V36.9421H7.69576V22.993H22.8711V36.9421H30.5733V2.74683H22.8711Z" fill="#005BAA"/>
<path d="M54.6473 11.0664V12.4567C52.601 11.2168 50.203 10.5046 47.6336 10.5046C40.17 10.5046 34.1166 16.5351 34.1166 23.9771C34.1166 31.4177 40.17 37.4496 47.6336 37.4496C50.1363 37.4496 52.4744 36.7699 54.4847 35.5924V36.9423H61.3543V11.0664H54.6473ZM47.9769 31.7693C43.621 31.7693 40.0998 28.2838 40.0998 23.9802C40.0998 19.6729 43.6209 16.1848 47.9769 16.1848C52.3317 16.1848 55.8587 19.6729 55.8587 23.9802C55.8585 28.2838 52.3315 31.7693 47.9769 31.7693Z" fill="#005BAA"/>
<path d="M118.835 8.64795C112.352 9.77896 107.423 15.4195 107.347 22.2223V36.9651H114.088L114.092 21.9452C114.092 18.5067 116.673 15.6691 120 15.2619L118.835 8.64795Z" fill="#005BAA"/>
</svg>
