<svg width="208" height="31" viewBox="0 0 208 31" fill="none" xmlns="http://www.w3.org/2000/svg">
<path d="M77.4092 5.48705V25.4708H90.7826V21.9977H81.5187V16.874H90.1488V13.4813H81.5187V8.90349L90.4538 8.90532V5.48705H77.4092ZM92.3497 25.4708H96.3752V5.40123H92.3497V25.4708ZM110.603 17.9696C110.603 14.0017 108.812 11.2189 104.373 11.2189C99.935 11.2189 97.6172 13.8666 97.6172 18.4425C97.6172 23.2924 99.3834 25.8031 104.565 25.8031C107.018 25.8031 109.281 25.0581 110.357 24.3405L109.612 21.722C108.424 22.3282 106.689 22.7701 105.283 22.7701C103.876 22.7701 102.83 22.3575 102.388 21.8882C101.864 21.3093 101.615 20.3726 101.615 19.4085H110.603V17.9696ZM106.66 16.8429H101.615C101.672 14.9147 102.607 13.9779 104.262 13.9779C106.087 13.9779 106.66 15.1612 106.66 16.8429ZM123.887 13.0649C122.921 12.0734 121.047 11.3029 118.95 11.3029C114.07 11.3029 111.756 13.505 111.756 18.6032C111.756 23.5115 113.602 25.8524 118.813 25.8524C120.965 25.8524 122.811 25.3302 123.832 24.6966L123.005 21.9375C121.984 22.436 120.689 22.792 119.173 22.792C117.023 22.792 115.643 21.6088 115.643 18.6598C115.643 15.4643 116.83 14.2756 118.98 14.2756C120.165 14.2756 121.184 14.7723 121.845 15.3803L123.887 13.0649ZM135.812 11.5786H131.153V8.24431L127.208 8.89619V11.5786H124.811V14.6956H127.208V20.8145C127.208 24.4793 128.34 25.8031 131.536 25.8031C133.33 25.8031 135.04 25.416 136.362 24.6984L135.783 21.8316C134.93 22.2753 133.799 22.5218 132.999 22.5218C131.648 22.5218 131.153 22.0781 131.153 20.316V14.7211H135.812V11.5786ZM137.79 11.5786V25.4708H141.787V15.9044C142.477 15.0224 143.746 14.471 145.04 14.471C145.759 14.471 146.557 14.6645 146.999 14.9129L147.909 11.6863C147.301 11.3576 146.283 11.217 145.346 11.217C143.993 11.217 142.32 11.8251 141.465 12.9572L141.467 11.5768L137.79 11.5786ZM154.793 11.2189C149.719 11.2189 147.565 13.6201 147.565 18.4699C147.565 23.0185 149.113 25.8031 154.212 25.8031C159.147 25.8031 161.461 23.4585 161.461 18.6087C161.461 13.8684 159.92 11.2189 154.793 11.2189ZM157.41 18.3603C157.41 21.5595 156.804 22.9071 154.296 22.9071C152.199 22.9071 151.622 21.2801 151.622 18.4991C151.622 15.3566 152.281 14.1131 154.709 14.1131C156.943 14.1131 157.41 15.7693 157.41 18.3603ZM162.899 11.5786V25.4708H166.897V15.2434C167.394 14.8873 168.387 14.5276 169.215 14.5276C171.171 14.5276 171.585 15.3 171.585 16.8429V25.4708H175.582V15.8825C175.582 13.096 174.588 11.2481 171.253 11.2481C169.71 11.2481 168.079 11.6352 166.647 12.5208V12.4898V11.5786H162.899ZM177.536 8.57299H181.589V5.3501H177.536V8.57299ZM177.565 25.4708H181.561V11.5786H177.565V25.4708ZM195.046 13.0102C194.078 12.0168 192.204 11.2463 190.107 11.2463C185.231 11.2463 182.913 13.4521 182.913 18.5521C182.913 23.4567 184.763 25.8013 189.971 25.8013C192.12 25.8013 193.97 25.2772 194.99 24.6436L194.162 21.8864C193.143 22.383 191.846 22.7409 190.33 22.7409C188.179 22.7409 186.802 21.5577 186.802 18.6069C186.802 15.4095 187.987 14.2245 190.137 14.2245C191.324 14.2245 192.343 14.7193 193.004 15.3255L195.046 13.0102ZM207.645 12.4605C206.016 11.7174 204.447 11.2481 202.188 11.2481C198.299 11.2481 196.23 12.9024 196.23 15.4661C196.23 18.0846 197.912 19.2697 200.064 19.7645L201.634 20.1224C203.041 20.4256 203.921 20.8967 203.921 21.5851C203.921 22.4396 203.041 22.8815 201.773 22.8815C200.173 22.8815 198.299 22.3575 197.141 21.6964L196.118 24.5614C197.527 25.3064 199.291 25.8561 201.746 25.8561C205.468 25.8561 207.757 24.3971 207.757 21.3349C207.757 19.2971 206.487 18.1412 204.805 17.6446C204.336 17.5058 203.481 17.2574 202.876 17.1205C201.413 16.8174 199.954 16.5106 199.954 15.4114C199.954 14.5824 200.834 14.1423 202.268 14.1423C203.868 14.1423 205.411 14.555 206.513 15.1612L207.645 12.4605Z" fill="#6B6C6C"/>
<path d="M37.9375 5.4834V25.5201H43.6598H52.1565V21.6161H42.5639V5.4834H37.9375Z" fill="#6B6C6C"/>
<path d="M62.3445 17.882H66.1162V21.3842C65.4203 21.6508 64.065 21.9138 62.7737 21.9138C58.6076 21.9138 57.2176 19.7974 57.2176 15.5009C57.2176 11.4015 58.54 8.98752 62.7062 8.98752C65.0239 8.98752 66.3463 9.71427 67.4367 11.102L70.3152 8.45798C68.5618 5.94541 65.486 5.18579 62.6094 5.18579C56.1254 5.18579 52.7191 8.72093 52.7191 15.4662C52.7191 22.1804 55.7948 25.8178 62.5747 25.8178C65.6833 25.8178 68.728 25.0235 70.381 23.8658V14.146H62.3445V17.882Z" fill="#6B6C6C"/>
<path d="M15.503 31C24.0655 31 31.0061 24.0576 31.0061 15.5009C31.0061 6.9388 24.0655 0 15.503 0C6.94056 0 0 6.9388 0 15.5009C0 24.0576 6.94056 31 15.503 31Z" fill="#A51B37"/>
<path d="M16.1185 8.69556H14.8875V22.2846H19.2053V21.0704H16.1185V8.69556Z" fill="white"/>
<path d="M10.5533 12.4057C11.5798 12.4057 12.4145 11.5713 12.4145 10.5487C12.4145 9.52431 11.5798 8.69165 10.5533 8.69165C9.53048 8.69165 8.69579 9.52431 8.69579 10.5487C8.69579 11.5713 9.53048 12.4057 10.5533 12.4057Z" fill="white"/>
<path d="M16.1185 2.53086C15.9633 2.52355 15.6546 2.52173 15.503 2.52173C8.3524 2.52173 2.53146 8.34119 2.53146 15.4955C2.53146 18.9594 3.87391 22.217 6.3232 24.6656C8.78162 27.1198 12.0419 28.4692 15.503 28.4692C18.966 28.4692 22.2262 27.1198 24.681 24.6656C27.1303 22.217 28.4764 18.9594 28.4764 15.4955V14.9057H27.9577H19.2144V16.1126H27.2453V16.2861C26.8326 22.4032 21.7221 27.2549 15.503 27.2549C12.3633 27.2549 9.41175 26.0333 7.18712 23.8129C4.96431 21.5906 3.74058 18.6362 3.74058 15.4955C3.74058 12.3566 4.96431 9.40027 7.18712 7.17803C9.41175 4.95396 12.3633 3.73237 15.503 3.73237C15.6455 3.73237 15.9779 3.73602 16.1185 3.73967V2.53086Z" fill="white"/>
</svg>
