<svg width="143" height="26" viewBox="0 0 143 26" fill="none" xmlns="http://www.w3.org/2000/svg">
<path d="M50.735 25.1633C45.5789 25.1633 40.7931 23.6192 37.6026 20.7312C35.2951 18.6437 33.9847 15.6699 34.0132 12.5531C34.0132 9.46484 35.2951 6.491 37.6026 4.40358C40.5652 1.71568 45.8068 0 50.735 0C56.2044 0 60.5629 1.37255 63.8959 4.43218C66.1748 6.51959 67.4567 9.49344 67.4282 12.5817C67.3997 15.6699 66.1463 18.6151 63.8959 20.7597C60.7908 23.6478 55.9196 25.1633 50.735 25.1633V21.8463C53.4697 21.8463 56.005 20.9027 57.7997 19.1299C59.5944 17.357 60.392 15.2124 60.392 12.5531C60.392 10.0081 59.5089 7.66338 57.7997 5.97629C56.062 4.23202 53.4412 3.2598 50.735 3.2598C48.0287 3.2598 45.4364 4.23202 43.6703 5.97629C41.9895 7.66338 41.1064 10.0367 41.1064 12.5531C41.0495 15.0122 41.9895 17.357 43.6703 19.1299C45.4079 20.8741 48.0287 21.8463 50.735 21.8463V25.1633ZM13.047 0C10.2837 0 7.15018 0.514705 4.50091 1.71568C2.02256 2.83087 0 4.60375 0 7.549C0 9.09311 0.569736 10.6086 1.65223 11.7238C2.3644 12.3815 3.53236 13.5253 6.52348 14.183C7.86235 14.4689 10.7395 14.9264 13.6167 15.241C16.4939 15.5555 19.2571 15.8129 20.3965 16.1274C21.3081 16.3562 22.8179 16.6707 22.8179 18.3864C22.8179 20.1021 21.2227 20.6168 20.9378 20.7312C20.6529 20.8455 18.7443 21.732 15.2689 21.732C12.99 21.6748 10.711 21.2745 8.51755 20.5596C7.23564 20.1021 5.86828 19.473 4.61486 17.9289C4.1021 17.214 3.81723 16.3276 3.78874 15.4411H0.655196V24.2483H4.13058V23.0473C4.13058 22.7614 4.35848 22.5612 4.61486 22.5326C4.70032 22.5326 4.78578 22.5612 4.87124 22.6184C6.52348 23.3333 8.2042 23.8766 9.97038 24.2769C11.7935 24.6486 12.99 24.9346 15.2404 24.9346C17.6333 24.9918 20.0262 24.6486 22.3336 23.9338C23.8434 23.5048 25.2963 22.8186 26.5497 21.8463C27.974 20.7312 28.8286 19.0155 28.8001 17.214C28.8001 15.5269 28.1449 13.8684 26.977 12.6674C26.3218 12.0384 25.5527 11.4951 24.7265 11.1233C23.8434 10.723 22.9034 10.3799 21.9633 10.1511C20.1686 9.6936 16.095 9.1503 14.1579 8.95014C12.1354 8.74998 8.60301 8.43544 7.17867 8.00652C6.75137 7.86354 5.86828 7.46322 5.86828 6.43381C5.86828 5.71894 6.26709 5.08986 7.06472 4.60375C8.31814 3.80309 10.8535 3.31698 13.4743 3.31698C16.0096 3.28839 18.5449 3.7745 20.9093 4.77531C21.536 5.06126 22.1342 5.4044 22.6755 5.83332C23.5586 6.57678 24.1568 7.60619 24.4132 8.74998H27.2334V1.11519H24.0998V2.00163C24.0998 2.28758 23.815 2.65931 23.2452 2.34476C21.8779 1.6299 17.8897 0.0285947 13.047 0ZM81.8141 1.40114L97.14 15.2696L96.9975 5.9191C96.969 4.68953 96.7696 4.17483 95.4307 4.17483H92.5536V1.40114H105.658V4.20342H102.837C101.498 4.20342 101.413 4.63234 101.384 5.9477L101.612 23.7908H97.14L79.5066 7.97792V19.187C79.5066 20.4166 79.5636 20.9885 80.817 20.9885H83.9506V23.7908H71.103V20.9885H74.1226C75.2336 20.9885 75.2051 19.9019 75.2051 19.1299V6.03348C75.2051 5.17564 75.0912 4.20342 73.325 4.20342H70.8751V1.40114H81.8141ZM120.613 20.9885C120.869 20.9885 121.126 20.9599 121.382 20.9313C121.639 20.8455 121.866 20.6454 121.98 20.388C122.009 20.1879 122.037 19.9877 122.037 19.7875V15.3839C122.037 15.241 122.037 15.241 121.838 15.0122C121.639 14.7835 113.805 5.86191 113.463 5.46159C113.007 4.97548 112.238 4.23202 111.042 4.23202H108.335V1.40114H123.69V4.20342H121.838C121.411 4.20342 121.126 4.60375 121.496 5.06126C121.496 5.06126 126.652 11.2663 126.709 11.3235C126.766 11.3807 126.795 11.4093 126.852 11.3521C126.909 11.2949 132.15 5.11845 132.179 5.06126C132.35 4.8325 132.321 4.48937 132.065 4.3178C131.951 4.23202 131.837 4.20342 131.723 4.20342H129.814V1.40114H142.434V4.20342H139.614C138.588 4.20342 138.189 4.40358 137.42 5.26142L128.931 14.955C128.846 15.0694 128.817 15.2124 128.817 15.3554V19.7589C128.817 19.9591 128.846 20.1593 128.874 20.3594C128.988 20.6168 129.216 20.8169 129.472 20.9027C129.729 20.9313 129.985 20.9599 130.242 20.9599H133.119V23.7622H117.85V20.9599L120.613 20.9885Z" fill="black"/>
</svg>
