<svg width="186" height="29" viewBox="0 0 186 29" fill="none" xmlns="http://www.w3.org/2000/svg">
<path d="M13.5122 19.2694H8.42223V12.7447H11.7298C12.3559 12.7447 12.8891 12.7291 13.5153 12.6949C13.9306 12.679 14.3369 12.5679 14.7028 12.37C15.0687 12.1722 15.3846 11.8929 15.6262 11.5535C15.894 11.1994 16.0649 10.7814 16.1222 10.3406C16.178 9.95501 16.1842 9.62536 16.147 9.2335C16.0819 8.53597 15.7587 7.8882 15.2412 7.41789C14.7236 6.94757 14.0492 6.68883 13.351 6.69266H8.42223V27.8467H0V0H13.7632C14.3119 0 14.7738 0.00932991 15.3225 0.0404296C18.9771 0.236358 21.9871 2.27339 23.5339 5.59795C24.3242 7.24202 24.6266 9.07943 24.4049 10.8911C24.218 12.8099 23.4244 14.6185 22.14 16.0526C20.8556 17.4866 19.1478 18.4711 17.266 18.862C16.0353 19.1402 14.7769 19.2769 13.5153 19.2694" fill="black"/>
<path d="M44.7863 26.2885C44.6747 24.6496 44.6127 23.2625 44.5786 21.6173C44.5352 19.4559 44.5104 17.6366 44.4949 15.4751C44.4949 14.3685 44.3511 13.2666 44.0672 12.1972C43.8968 11.489 43.5797 10.8247 43.1364 10.2476C42.6931 9.67045 42.1336 9.19351 41.4943 8.8478C40.7347 8.41654 39.9127 8.10699 39.0578 7.93036C36.3412 7.31791 33.5293 7.26184 30.7906 7.76553C29.9846 7.90548 29.312 8.1014 28.5525 8.41862C27.7095 8.75273 26.9535 9.27544 26.3422 9.94695C25.7309 10.6185 25.2804 11.4211 25.0249 12.2936C24.8132 12.9558 24.7486 13.6564 24.8358 14.3462C24.8482 14.4768 24.8823 14.5888 24.9412 14.7101L31.6152 14.8749C31.5946 14.4708 31.6558 14.0667 31.7949 13.6869C31.8948 13.3937 32.06 13.1272 32.2782 12.9079C32.4963 12.6885 32.7615 12.522 33.0535 12.4212C33.9081 12.0923 34.8507 12.0758 35.7162 12.3745C36.003 12.4636 36.2634 12.6223 36.4743 12.8366C36.6852 13.0509 36.8401 13.3141 36.9252 13.6029C37.0368 13.9761 36.981 14.3493 36.7547 14.6697C36.5686 14.9435 36.302 15.1522 35.9921 15.2668C35.7937 15.3445 35.6201 15.3974 35.4186 15.4534C34.5407 15.6936 33.6509 15.8877 32.7528 16.0349C32.0026 16.1593 31.3703 16.2744 30.6263 16.4268C29.6687 16.6152 28.7236 16.8624 27.7962 17.167C26.9402 17.4352 26.156 17.8946 25.5023 18.5105C24.6263 19.2911 24.0624 20.3641 23.9152 21.5303C23.8005 22.342 23.8284 23.0479 24.0082 23.8472C24.2162 24.8428 24.6937 25.7617 25.3882 26.5029C26.0827 27.2441 26.9673 27.7789 27.945 28.0488C30.1028 28.7115 32.424 28.5937 34.5042 27.716C35.5205 27.3193 36.4159 26.6632 37.1019 25.8127L36.6307 22.3917C36.3165 22.8951 35.8554 23.2893 35.3102 23.5206C34.7832 23.7539 34.3027 23.8783 33.7292 23.9374C33.2488 23.984 32.8334 23.9498 32.3684 23.8192C32.0074 23.7254 31.6812 23.5289 31.4292 23.2532C31.208 23.0215 31.0574 22.7313 30.9952 22.4166C30.9423 22.1768 30.9566 21.9269 31.0365 21.6948C31.1163 21.4626 31.2587 21.2571 31.4478 21.1011C31.6936 20.8861 31.9775 20.7194 32.2847 20.6097C33.0187 20.3373 33.7632 20.0945 34.5166 19.882C35.4744 19.6114 36.2649 19.3191 37.1732 18.8992C37.2599 19.627 37.2568 20.2489 37.1546 20.9736C37.0833 21.5054 36.919 21.9439 36.6307 22.3917L37.1019 25.8127C37.2475 26.2978 37.3808 26.7021 37.5482 27.1811C37.6412 27.4454 37.7652 27.6507 37.9512 27.859H45.2978C44.9936 27.3904 44.8172 26.85 44.7863 26.2916" fill="black"/>
<path d="M53.5743 10.0576C54.4945 9.23818 55.5321 8.562 56.6524 8.05166C58.4809 7.17098 60.5733 7.01548 62.5111 7.61626C63.5538 7.90442 64.5065 8.4533 65.2802 9.21151C66.0538 9.96973 66.623 10.9125 66.9346 11.9516C67.2553 12.9384 67.4144 13.9708 67.4057 15.0087V27.8466H59.5322V16.3024C59.5322 15.9168 59.4826 15.5871 59.371 15.2201C59.2789 14.9014 59.1158 14.6078 58.894 14.3616C58.6722 14.1154 58.3976 13.9229 58.0908 13.7989C57.423 13.5104 56.673 13.4777 55.9829 13.707C55.2927 13.9363 54.7104 14.4116 54.3462 15.0429C54.0339 15.5612 53.8728 16.1571 53.8812 16.7627V27.8466H46.2556V7.95525H53.4069L53.5743 10.0576Z" fill="black"/>
<path d="M89.2998 26.2885C89.1883 24.6496 89.1263 23.2625 89.0922 21.6173C89.0488 19.4559 89.024 17.6366 89.0085 15.4751C89.0085 14.3685 88.8647 13.2666 88.5807 12.1972C88.4103 11.489 88.0932 10.8247 87.6499 10.2476C87.2066 9.67045 86.6471 9.19351 86.0078 8.8478C85.2483 8.41654 84.4262 8.10699 83.5714 7.93036C80.8547 7.31791 78.0429 7.26184 75.3041 7.76553C74.4982 7.90548 73.8255 8.1014 73.066 8.41862C72.223 8.75273 71.467 9.27544 70.8557 9.94695C70.2444 10.6185 69.7939 11.4211 69.5384 12.2936C69.3267 12.9558 69.2621 13.6564 69.3494 14.3462C69.3618 14.4768 69.3959 14.5888 69.4547 14.7101L76.1287 14.8749C76.1082 14.4708 76.1693 14.0667 76.3085 13.6869C76.4083 13.3937 76.5736 13.1272 76.7917 12.9079C77.0098 12.6885 77.275 12.522 77.567 12.4212C78.4216 12.0923 79.3643 12.0758 80.2298 12.3745C80.5165 12.4636 80.7769 12.6223 80.9878 12.8366C81.1987 13.0509 81.3536 13.3141 81.4387 13.6029C81.5503 13.9761 81.4945 14.3493 81.2682 14.6697C81.0821 14.9435 80.8156 15.1522 80.5056 15.2668C80.3072 15.3445 80.1337 15.3974 79.9322 15.4534C79.0542 15.6936 78.1644 15.8877 77.2663 16.0349C76.5162 16.1593 75.8838 16.2744 75.1398 16.4268C74.1822 16.6152 73.2371 16.8624 72.3097 17.167C71.4537 17.4352 70.6695 17.8946 70.0158 18.5105C69.1398 19.2911 68.5759 20.3641 68.4287 21.5303C68.314 22.342 68.3419 23.0479 68.5217 23.8472C68.7298 24.8428 69.2072 25.7617 69.9017 26.5029C70.5962 27.2441 71.4808 27.7789 72.4585 28.0488C74.6163 28.7115 76.9375 28.5937 79.0177 27.716C80.034 27.3193 80.9295 26.6632 81.6154 25.8127L81.1442 22.3917C80.83 22.8951 80.3689 23.2893 79.8237 23.5206C79.2967 23.7539 78.8162 23.8783 78.2428 23.9374C77.7623 23.984 77.3469 23.9498 76.8819 23.8192C76.521 23.7254 76.1947 23.5289 75.9427 23.2532C75.7215 23.0215 75.5709 22.7313 75.5087 22.4166C75.4558 22.1768 75.4701 21.9269 75.55 21.6948C75.6299 21.4626 75.7722 21.2571 75.9613 21.1011C76.2071 20.8861 76.491 20.7194 76.7982 20.6097C77.5322 20.3373 78.2768 20.0945 79.0301 19.882C79.988 19.6114 80.7784 19.3191 81.6867 18.8992C81.7735 19.627 81.7704 20.2489 81.6681 20.9736C81.5968 21.5054 81.4325 21.9439 81.1442 22.3917L81.6154 25.8127C81.7611 26.2978 81.8944 26.7021 82.0617 27.1811C82.1547 27.4454 82.2787 27.6507 82.4647 27.859H89.8113C89.5071 27.3904 89.3308 26.85 89.2998 26.2916" fill="black"/>
<path d="M100.304 20.5352C100.872 20.6317 101.346 20.7529 101.891 20.9333C102.11 21.002 102.306 21.1287 102.459 21.3001C102.612 21.4714 102.716 21.6811 102.759 21.9067C102.816 22.1501 102.808 22.4039 102.738 22.6436C102.668 22.8833 102.538 23.1008 102.359 23.2751C102.008 23.6412 101.544 23.8788 101.042 23.95C100.341 24.062 99.7215 24.006 99.0581 23.7634C98.7491 23.6559 98.4623 23.4925 98.2119 23.2813C97.8827 23.01 97.642 22.6461 97.5206 22.2364C97.4126 21.8937 97.3623 21.5352 97.3718 21.1759H90.112V21.5989C90.112 22.283 90.2174 22.8646 90.4561 23.5084C90.8219 24.4725 91.321 25.2189 92.0742 25.9217C93.0028 26.8096 94.1375 27.4509 95.3755 27.7877C97.9248 28.5474 100.613 28.7175 103.237 28.2853C104.469 28.1072 105.661 27.718 106.761 27.1346C107.25 26.8825 107.707 26.5747 108.125 26.2172C109.077 25.4388 109.77 24.3877 110.111 23.2042C110.452 22.0207 110.425 20.7609 110.035 19.5929C109.763 18.7094 109.244 17.9225 108.541 17.3258C107.594 16.4862 106.471 15.8727 105.255 15.5313L104.461 15.3043C102.987 14.8877 101.488 14.5677 99.9726 14.3464C99.5448 14.2842 99.1852 14.2158 98.7636 14.1163C98.579 14.0725 98.3993 14.01 98.2274 13.9297C98.1211 13.8819 98.0253 13.8136 97.9454 13.7287C97.8654 13.6437 97.8029 13.5438 97.7615 13.4346C97.72 13.3255 97.7004 13.2092 97.7038 13.0924C97.7071 12.9757 97.7334 12.8607 97.781 12.7541L97.8151 12.6857C97.9263 12.4801 98.0779 12.2991 98.2606 12.1538C98.4433 12.0084 98.6534 11.9016 98.8783 11.8398C99.7091 11.6003 100.472 11.6221 101.287 11.8958C101.662 12.0201 101.987 12.2651 102.21 12.5928C102.433 12.9205 102.542 13.3127 102.521 13.7089H109.52C109.52 12.8895 109.375 12.0766 109.092 11.308C108.819 10.5182 108.321 9.82611 107.66 9.31759C107.098 8.86371 106.467 8.50258 105.791 8.24776C105.137 7.9892 104.457 7.79951 103.764 7.68174C102.121 7.38684 100.448 7.29285 98.7823 7.40184C97.7779 7.45782 96.9316 7.58222 95.949 7.81236C94.6285 8.12336 93.5621 8.6365 92.4958 9.47619C91.6192 10.1474 90.9637 11.0672 90.6142 12.1166C90.1907 13.3839 90.2369 14.7619 90.7444 15.9978C91.0088 16.6958 91.4177 17.3296 91.944 17.8576C92.4702 18.3856 93.102 18.7958 93.7977 19.0611C94.5324 19.3535 95.174 19.5463 95.949 19.7049C97.4772 20.0221 98.7698 20.2678 100.307 20.5321M124.086 7.576C123.302 7.4516 122.632 7.39873 121.839 7.39873C121.045 7.39873 120.379 7.4516 119.591 7.576C117.407 7.88871 115.38 8.89715 113.81 10.4527C112.076 12.0732 111.014 14.2894 110.834 16.6602C110.691 18.0984 110.823 19.5507 111.222 20.9395C111.842 23.1849 113.014 24.9203 114.858 26.3353C116.005 27.2391 117.345 27.863 118.773 28.1578C119.78 28.3843 120.81 28.4949 121.842 28.4874C122.927 28.4874 123.844 28.3941 124.908 28.1578C126.336 27.8629 127.676 27.239 128.823 26.3353L124.564 21.6766C124.403 22.0355 124.173 22.3591 123.887 22.6288C123.602 22.8986 123.266 23.1092 122.899 23.2488C122.532 23.3883 122.142 23.4539 121.75 23.4419C121.358 23.4298 120.972 23.3404 120.614 23.1787C119.943 22.8872 119.408 22.3501 119.117 21.6766C118.839 21.0675 118.65 20.4212 118.556 19.7578C118.345 18.3583 118.37 17.1454 118.64 15.7583C118.779 15.0399 119.021 14.4521 119.421 13.8364C119.685 13.4347 120.044 13.1051 120.466 12.877C120.888 12.6489 121.359 12.5295 121.839 12.5295C122.318 12.5295 122.79 12.6489 123.212 12.877C123.634 13.1051 123.993 13.4347 124.257 13.8364C124.645 14.4167 124.911 15.0708 125.038 15.7583C125.307 17.1485 125.335 18.3614 125.125 19.7578C125.019 20.4575 124.852 21.0328 124.564 21.6766L128.823 26.3353C130.61 25.0035 131.891 23.1003 132.456 20.9395C132.862 19.4779 132.98 18.1717 132.843 16.6602C132.665 14.2892 131.602 12.0728 129.867 10.4527C128.298 8.8966 126.271 7.88807 124.086 7.576Z" fill="black"/>
<path d="M141.265 10.0576C142.186 9.23818 143.223 8.562 144.344 8.05166C146.172 7.17098 148.264 7.01548 150.202 7.61626C151.245 7.90442 152.198 8.4533 152.971 9.21151C153.745 9.96973 154.314 10.9125 154.626 11.9516C154.946 12.9384 155.105 13.9708 155.097 15.0087V27.8466H147.223V16.3024C147.223 15.9168 147.174 15.5871 147.062 15.2201C146.97 14.9014 146.807 14.6078 146.585 14.3616C146.363 14.1154 146.089 13.9229 145.782 13.7989C145.114 13.5104 144.364 13.4777 143.674 13.707C142.984 13.9363 142.401 14.4116 142.037 15.0429C141.725 15.5612 141.564 16.1571 141.572 16.7627V27.8466H133.947V7.95525H141.098L141.265 10.0576Z" fill="black"/>
<path d="M156.622 0V5.25585H164.034V0H156.622ZM156.622 7.95841V27.8498H164.034V7.95841H156.622ZM183.944 25.2685C182.531 26.8014 180.664 27.8365 178.618 28.2199C177.18 28.5122 175.921 28.5744 174.461 28.422C172.608 28.2557 170.84 27.5632 169.365 26.4254C168.142 25.5302 167.125 24.3828 166.38 23.0604C165.785 22.0481 165.388 20.9315 165.208 19.7701C164.929 18.0783 165.004 16.5917 165.447 14.9372C166.461 11.1741 169.279 8.50888 173.082 7.71584C175.252 7.26489 177.18 7.31154 179.328 7.86822C180.791 8.22902 182.135 8.96776 183.225 10.011C183.923 10.6495 184.5 11.4091 184.93 12.2533C185.463 13.2436 185.707 14.3646 185.633 15.4876H178.854C178.791 15.0526 178.642 14.6345 178.416 14.2576C178.191 13.8807 177.893 13.5525 177.54 13.292C177.09 12.9388 176.543 12.7342 175.972 12.7064C175.402 12.6785 174.838 12.8288 174.356 13.1365C173.684 13.5414 173.186 14.1835 172.961 14.9372C172.381 16.7066 172.351 18.6112 172.874 20.3983C173.075 21.1553 173.487 21.8393 174.062 22.37C174.38 22.6842 174.767 22.9184 175.193 23.0535C175.619 23.1887 176.07 23.2209 176.51 23.1475C177.066 23.0758 177.576 22.8012 177.943 22.3762C178.335 21.9496 178.594 21.4163 178.687 20.843C178.761 20.4232 178.801 20.0655 178.826 19.6395H185.971C186.056 20.6687 185.919 21.7042 185.569 22.6756C185.219 23.6469 184.665 24.5312 183.944 25.2685Z" fill="black"/>
</svg>
