<svg width="90" height="29" viewBox="0 0 90 29" fill="none" xmlns="http://www.w3.org/2000/svg">
<path fill-rule="evenodd" clip-rule="evenodd" d="M0 1.51904V9.11428H10.2031V28.0333H19.3032V9.11428H29.4373V1.51904H0Z" fill="#C72030"/>
<path fill-rule="evenodd" clip-rule="evenodd" d="M47.2927 22.5095C45.1555 22.5095 43.5699 21.8881 42.2601 20.5762C40.9502 19.3333 39.9851 17.331 39.9851 14.7071V14.3619C39.9851 11.7381 40.9502 9.73571 42.2601 8.49286C43.6389 7.18095 45.2245 6.55952 47.2927 6.55952C52.2563 6.55952 53.2904 9.59762 53.6351 11.6H61.7011C61.4943 7.59524 59.6329 4.76429 57.0132 2.83095C54.3935 0.966667 51.3601 0 47.3616 0C42.398 0 38.882 1.10476 35.9866 3.65952C33.0911 6.35238 31.5744 10.4262 31.5744 14.431V14.6381C31.5744 19.0571 32.9532 22.4405 35.9176 25.2024C38.6752 27.8262 42.7427 29 47.2927 29C51.2912 29 54.7382 28.0333 57.1511 26.169C59.7708 24.0976 61.5632 21.2667 61.77 17.469H53.6351C53.4283 19.1262 52.4632 22.5095 47.2927 22.5095Z" fill="#C72030"/>
<path fill-rule="evenodd" clip-rule="evenodd" d="M75.3512 20.7143V1.51904H66.5958V28.0333H89.6907V20.7143H75.3512Z" fill="#C72030"/>
</svg>
