<svg width="252" height="71" viewBox="0 0 252 71" fill="none" xmlns="http://www.w3.org/2000/svg">
<path fill-rule="evenodd" clip-rule="evenodd" d="M10.3566 10.2337C10.3566 10.2337 5.09329 9.30501 5.65058 16.6738L7.98287 47.945C7.98287 47.945 9.0253 53.2395 13.5767 50.8245L43.0214 38.1923C43.0214 38.1923 45.8081 36.0922 43.9503 30.826L38.0985 14.7851C38.0985 14.7851 36.5194 11.627 33.64 12.1843" fill="url(#paint0_linear_72_373)"/>
<path fill-rule="evenodd" clip-rule="evenodd" d="M22.4938 55.4528L47.2942 42.356L40.7921 61.9548C40.7921 61.9548 39.4918 64.4627 36.7981 62.7907L22.4938 55.4528Z" fill="url(#paint1_linear_72_373)"/>
<path fill-rule="evenodd" clip-rule="evenodd" d="M49.6268 32.4595C40.9442 31.2676 32.2478 30.1776 23.5515 29.0888C21.4046 28.8203 19.9557 30.1183 19.0073 31.7832C16.393 36.3716 13.9175 41.0398 11.4088 45.6881C11.3131 45.8659 11.2317 46.0625 11.1678 46.2642L14.3757 45.0676C16.4732 41.1464 18.5555 37.2171 20.5895 33.2624C21.1428 32.1884 21.7386 31.7875 23.0195 32.0146C31.0882 33.4465 39.1743 34.7818 47.2532 36.1564C49.4625 36.5319 49.7412 37.0642 49.0441 39.216C46.5693 46.8571 44.1143 54.5053 41.6554 62.1517C40.9257 64.4201 39.8017 64.923 37.6951 63.8729C32.8879 61.4764 26.6497 58.6892 21.8436 56.2886L17.0897 58.9416C23.3392 62.557 29.5831 66.1817 35.8327 69.7962C40.1152 72.274 44.6114 70.786 46.2626 66.0688C47.7833 61.721 48.9186 57.2371 50.2049 52.8083C51.4762 48.4274 52.6842 44.028 53.9922 39.6591C55.0947 35.9764 53.4098 32.9796 49.6268 32.4595Z" fill="white"/>
<path fill-rule="evenodd" clip-rule="evenodd" d="M39.8847 40.1847C31.2232 43.9037 21.9883 48.1424 13.3246 51.8556C9.97336 53.2925 7.46259 51.7395 7.23146 48.1021C7.05877 45.3794 6.83818 42.6598 6.63715 39.9387C5.9902 31.1897 5.32368 22.442 4.7069 13.6907C4.51895 11.0245 6.19052 9.32896 8.89293 9.35687C10.0235 9.36867 11.1534 9.50469 12.2829 9.59668C19.7712 10.2075 27.2571 10.8524 34.7493 11.4158C36.869 11.5751 38.2168 12.6496 38.8928 14.5345C40.7146 19.617 42.4682 24.7241 44.216 29.8325L46.0247 29.9713C44.2429 24.8642 42.2248 19.0947 40.2542 14.06C39.1324 11.1935 36.9641 9.35772 33.6851 9.1415C32.0538 9.03396 30.4315 8.78814 28.8053 8.60344C28.8006 8.60287 28.7955 8.60146 28.7908 8.60068L19.1365 7.43361C18.9054 7.43927 18.6608 7.42203 18.3989 7.38394C15.2027 6.91788 11.9865 6.59094 8.77832 6.20691C4.59957 5.70714 -0.448552 8.16747 0.0318547 14.2867C0.474883 19.9326 0.500603 25.6116 0.712861 31.2758C0.962144 37.9471 1.13088 44.6229 1.48756 51.2882C1.83944 57.8612 7.6405 61.3183 13.3588 58.4215C23.3918 53.3389 37.2768 46.2625 47.2943 41.1484L39.8847 40.1847Z" fill="white"/>
<path fill-rule="evenodd" clip-rule="evenodd" d="M19.1364 7.80523L15.3723 1.17676L20.6364 7.9864L25.0988 8.52595L28.5621 1.17676L26.5153 8.69722L19.1364 7.80523Z" fill="white"/>
<path fill-rule="evenodd" clip-rule="evenodd" d="M16.5487 1.17716C16.5487 1.8268 16.0222 2.35363 15.3724 2.35363C14.7225 2.35363 14.1957 1.8268 14.1957 1.17716C14.1957 0.527318 14.7225 0.000488281 15.3724 0.000488281C16.0222 0.000488281 16.5487 0.527318 16.5487 1.17716Z" fill="white"/>
<path fill-rule="evenodd" clip-rule="evenodd" d="M29.7387 1.17668C29.7387 1.82631 29.2123 2.35314 28.5625 2.35314C27.9126 2.35314 27.3858 1.82631 27.3858 1.17668C27.3858 0.52683 27.9126 0 28.5625 0C29.2123 0 29.7387 0.52683 29.7387 1.17668Z" fill="white"/>
<path d="M85.5064 28.4L79.3864 28.68C79.1464 28.68 78.9864 28.56 78.9064 28.24C78.6664 27.28 78.2664 26.8 77.7064 26.8C77.3064 26.8 77.1064 27.12 77.1064 27.52C77.1064 28.8 78.9864 30.24 81.3864 31.88C83.9864 33.64 85.9464 36.52 85.9464 39.48C85.9464 44.84 82.7464 49.12 77.5064 49.12C71.4264 49.12 68.6264 44.72 68.6264 38.32C68.6264 38.12 68.7864 37.92 69.1064 37.92L74.6264 37.64C74.9064 37.64 75.0664 37.8 75.1064 38.16C75.2664 39.76 75.9464 41.48 76.9064 41.48C77.4664 41.48 77.8264 41.12 77.8264 40.2C77.8264 39.24 75.5864 37.48 72.9064 35.32C70.2264 33.16 68.9064 30.16 68.9064 27.44C68.9064 23.36 71.9464 18.92 77.3064 18.92C82.6664 18.92 85.9864 23.12 85.9864 27.88C85.9864 28.16 85.8264 28.4 85.5064 28.4ZM93.9942 19.4L96.0342 31.92C96.0742 32.12 96.1942 32.24 96.2342 32.24C96.3142 32.24 96.4342 32.12 96.4342 31.92L98.1142 19.52C98.1942 19.24 98.3542 19 98.5942 19H105.474C105.714 19 105.874 19.24 105.834 19.52L100.274 48.52C100.234 48.8 100.034 49 99.7542 49H91.9542C91.7142 49 91.5142 48.72 91.4742 48.52L86.0742 19.44C86.0342 19.24 86.1142 19 86.3542 19H93.5142C93.7542 19 93.9542 19.12 93.9942 19.4ZM110.624 48.48V19.52C110.624 19.28 110.864 19 111.144 19H125.344C125.584 19 125.744 19.2 125.744 19.44V26.64C125.744 26.88 125.544 27.04 125.304 27.04H118.624C118.464 27.04 118.344 27.16 118.344 27.32V29.56C118.344 29.72 118.504 29.84 118.624 29.84H121.784C121.944 29.84 122.064 29.96 122.064 30.12V37.4C122.064 37.6 121.904 37.76 121.744 37.76H118.504C118.344 37.76 118.224 37.88 118.224 38.08V40.44C118.224 40.6 118.344 40.72 118.464 40.72H125.384C125.664 40.72 125.824 40.92 125.824 41.12V48.56C125.824 48.8 125.624 49 125.384 49H111.064C110.824 49 110.624 48.76 110.624 48.48ZM133.581 49H127.741C127.581 49 127.421 48.8 127.421 48.64V18.88C127.421 18.52 127.581 18.4 127.861 18.4H133.501C133.781 18.4 133.901 18.52 133.901 18.76V48.68C133.901 48.84 133.741 49 133.581 49ZM135.267 41.4V31.48C135.267 26.76 138.907 25 142.147 25C146.667 25 149.267 28.48 149.267 32.4V34.84C149.267 35.04 149.107 35.2 148.907 35.2H142.227C142.067 35.2 141.987 35.32 141.987 35.52V41.8C141.987 42.44 142.267 42.68 142.627 42.68C142.907 42.68 143.267 42.44 143.267 41.84V39.4C143.267 39.24 143.387 39.08 143.627 39.08L148.787 39.36C149.027 39.4 149.187 39.56 149.187 39.8V42.36C149.187 47.48 145.667 49 141.987 49C137.707 49 135.267 45.96 135.267 41.4ZM141.987 30.84V32.84C141.987 32.96 142.107 33.04 142.227 33.04C143.147 33.04 143.267 33.04 143.267 32.84C143.267 30.28 143.227 30 142.587 30C142.267 30 141.987 30.24 141.987 30.84ZM150.384 41.36V31.92C150.384 28.4 152.784 25 157.024 25C161.264 25 163.864 28.68 163.864 32.32C163.864 34.24 163.864 34.48 163.384 34.52L158.144 34.8C157.864 34.84 157.664 34.56 157.664 34.32V31.36C157.664 30.88 157.344 30.56 157.024 30.56C156.744 30.56 156.384 30.88 156.384 31.36V42C156.384 42.48 156.744 42.8 157.064 42.8C157.344 42.8 157.664 42.48 157.664 42V39.44C157.664 39.2 157.824 39.04 158.104 39.04L163.424 39.32C163.704 39.36 163.864 39.56 163.864 39.8C163.864 42.52 163.864 49 156.864 49C153.024 49 150.384 46 150.384 41.36ZM165.794 42.72V31.64C165.794 31.48 165.714 31.36 165.554 31.36C164.714 31.36 164.634 31.36 164.634 31.08V25.24C164.634 25.12 164.714 25 164.794 25C165.714 25 165.794 25 165.794 24.72V21.2C165.794 21.04 165.914 20.92 166.074 20.92H171.834C172.234 20.92 172.234 21 172.234 21.28V24.64C172.234 24.88 172.354 25 172.554 25C173.794 25 173.914 25 173.914 25.28V31.08C173.914 31.24 173.794 31.36 173.634 31.36C172.394 31.36 172.234 31.36 172.234 31.68V42.2C172.234 42.36 172.354 42.52 172.474 42.52C173.874 42.52 174.034 42.52 174.034 42.76C174.034 45.04 174.034 49 169.954 49C167.554 49 165.794 47.52 165.794 42.72ZM175.234 48.68V25.32C175.234 25.12 175.314 25 175.474 25H181.114C181.354 25 181.634 26.28 181.834 26.28C181.914 26.28 181.994 26.2 182.074 26C182.474 25.04 183.354 25 184.594 25C184.714 25 184.834 25.12 184.834 25.28V31.04C184.834 31.2 184.754 31.32 184.554 31.32C182.514 31.32 181.714 32.4 181.714 35.64V48.64C181.714 48.84 181.554 49 181.354 49H175.514C175.354 49 175.234 48.88 175.234 48.68ZM185.97 42.76V31.2C185.97 27.52 188.73 25 192.85 25C196.97 25 199.73 27.48 199.73 31.4V42.76C199.73 46.48 196.97 49 192.85 49C188.77 49 185.97 46.44 185.97 42.76ZM192.21 32.2V41.72C192.21 42.2 192.41 42.52 192.85 42.52C193.29 42.52 193.49 42.2 193.49 41.72V32.2C193.49 31.76 193.25 31.4 192.85 31.4C192.41 31.4 192.21 31.76 192.21 32.2ZM206.893 49H201.413C201.253 49 201.093 48.84 201.093 48.6V25.28C201.093 25.12 201.213 25 201.373 25H206.373C206.653 25 206.973 26.68 207.133 26.68C207.173 26.68 207.253 26.64 207.413 26.44C208.133 25.52 208.853 25 210.533 25C212.493 25 214.453 26.52 214.453 29.24V48.8C214.453 48.92 214.373 49 214.253 49H208.733C208.573 49 208.453 48.88 208.453 48.72V32.36C208.453 31.76 208.133 31.56 207.813 31.56C207.493 31.56 207.173 31.76 207.173 32.36V48.76C207.173 48.92 207.093 49 206.893 49ZM222.534 25.4V48.68C222.534 48.84 222.414 49 222.254 49H216.374C216.214 49 216.054 48.8 216.054 48.64V25.48C216.054 25.2 216.214 25 216.454 25H222.134C222.374 25 222.534 25.2 222.534 25.4ZM222.134 18.2V23.32C222.134 23.56 221.974 23.76 221.734 23.76H216.854C216.654 23.76 216.454 23.52 216.454 23.28V18.32C216.454 18.12 216.654 17.88 216.854 17.88H221.774C221.934 17.88 222.134 18 222.134 18.2ZM223.9 41.36V31.92C223.9 28.4 226.3 25 230.54 25C234.78 25 237.38 28.68 237.38 32.32C237.38 34.24 237.38 34.48 236.9 34.52L231.66 34.8C231.38 34.84 231.18 34.56 231.18 34.32V31.36C231.18 30.88 230.86 30.56 230.54 30.56C230.26 30.56 229.9 30.88 229.9 31.36V42C229.9 42.48 230.26 42.8 230.58 42.8C230.86 42.8 231.18 42.48 231.18 42V39.44C231.18 39.2 231.34 39.04 231.62 39.04L236.94 39.32C237.22 39.36 237.38 39.56 237.38 39.8C237.38 42.52 237.38 49 230.38 49C226.54 49 223.9 46 223.9 41.36ZM251.109 33.04L246.349 33.32C246.149 33.36 246.029 33.2 246.029 32.96C246.029 31.72 245.749 31.08 245.149 31.08C244.829 31.08 244.549 31.36 244.549 31.8C244.549 32.64 245.749 33.84 247.949 35.84C250.309 37.92 251.309 39.64 251.309 42.2C251.309 45.64 249.589 49 244.709 49C242.029 49 238.429 47.52 238.429 40.8C238.429 40.6 238.549 40.44 238.709 40.44L243.069 40.16C243.229 40.16 243.349 40.28 243.389 40.44C243.469 41.88 243.949 42.76 244.549 42.76C244.909 42.76 245.109 42.48 245.109 42.08C245.109 41.12 243.589 39.6 241.349 37.72C239.709 36.4 238.269 34.24 238.269 31.24C238.269 27.68 241.109 25 244.669 25C249.469 25 251.509 28.72 251.509 32.68C251.509 32.88 251.309 33.04 251.109 33.04Z" fill="white"/>
<defs>
<linearGradient id="paint0_linear_72_373" x1="5.6093" y1="30.8258" x2="44.5889" y2="30.8258" gradientUnits="userSpaceOnUse">
<stop stop-color="#00BDF2"/>
<stop offset="1" stop-color="#DFF3FD"/>
</linearGradient>
<linearGradient id="paint1_linear_72_373" x1="22.4938" y1="52.8606" x2="47.2942" y2="52.8606" gradientUnits="userSpaceOnUse">
<stop stop-color="#00BDF2"/>
<stop offset="1" stop-color="#DFF3FD"/>
</linearGradient>
</defs>
</svg>
