<svg width="261" height="85" viewBox="0 0 261 85" fill="none" xmlns="http://www.w3.org/2000/svg">
<path d="M94.5064 37.4L88.3864 37.68C88.1464 37.68 87.9864 37.56 87.9064 37.24C87.6664 36.28 87.2664 35.8 86.7064 35.8C86.3064 35.8 86.1064 36.12 86.1064 36.52C86.1064 37.8 87.9864 39.24 90.3864 40.88C92.9864 42.64 94.9464 45.52 94.9464 48.48C94.9464 53.84 91.7464 58.12 86.5064 58.12C80.4264 58.12 77.6264 53.72 77.6264 47.32C77.6264 47.12 77.7864 46.92 78.1064 46.92L83.6264 46.64C83.9064 46.64 84.0664 46.8 84.1064 47.16C84.2664 48.76 84.9464 50.48 85.9064 50.48C86.4664 50.48 86.8264 50.12 86.8264 49.2C86.8264 48.24 84.5864 46.48 81.9064 44.32C79.2264 42.16 77.9064 39.16 77.9064 36.44C77.9064 32.36 80.9464 27.92 86.3064 27.92C91.6664 27.92 94.9864 32.12 94.9864 36.88C94.9864 37.16 94.8264 37.4 94.5064 37.4ZM102.994 28.4L105.034 40.92C105.074 41.12 105.194 41.24 105.234 41.24C105.314 41.24 105.434 41.12 105.434 40.92L107.114 28.52C107.194 28.24 107.354 28 107.594 28H114.474C114.714 28 114.874 28.24 114.834 28.52L109.274 57.52C109.234 57.8 109.034 58 108.754 58H100.954C100.714 58 100.514 57.72 100.474 57.52L95.0742 28.44C95.0342 28.24 95.1142 28 95.3542 28H102.514C102.754 28 102.954 28.12 102.994 28.4ZM119.624 57.48V28.52C119.624 28.28 119.864 28 120.144 28H134.344C134.584 28 134.744 28.2 134.744 28.44V35.64C134.744 35.88 134.544 36.04 134.304 36.04H127.624C127.464 36.04 127.344 36.16 127.344 36.32V38.56C127.344 38.72 127.504 38.84 127.624 38.84H130.784C130.944 38.84 131.064 38.96 131.064 39.12V46.4C131.064 46.6 130.904 46.76 130.744 46.76H127.504C127.344 46.76 127.224 46.88 127.224 47.08V49.44C127.224 49.6 127.344 49.72 127.464 49.72H134.384C134.664 49.72 134.824 49.92 134.824 50.12V57.56C134.824 57.8 134.624 58 134.384 58H120.064C119.824 58 119.624 57.76 119.624 57.48ZM142.581 58H136.741C136.581 58 136.421 57.8 136.421 57.64V27.88C136.421 27.52 136.581 27.4 136.861 27.4H142.501C142.781 27.4 142.901 27.52 142.901 27.76V57.68C142.901 57.84 142.741 58 142.581 58ZM144.267 50.4V40.48C144.267 35.76 147.907 34 151.147 34C155.667 34 158.267 37.48 158.267 41.4V43.84C158.267 44.04 158.107 44.2 157.907 44.2H151.227C151.067 44.2 150.987 44.32 150.987 44.52V50.8C150.987 51.44 151.267 51.68 151.627 51.68C151.907 51.68 152.267 51.44 152.267 50.84V48.4C152.267 48.24 152.387 48.08 152.627 48.08L157.787 48.36C158.027 48.4 158.187 48.56 158.187 48.8V51.36C158.187 56.48 154.667 58 150.987 58C146.707 58 144.267 54.96 144.267 50.4ZM150.987 39.84V41.84C150.987 41.96 151.107 42.04 151.227 42.04C152.147 42.04 152.267 42.04 152.267 41.84C152.267 39.28 152.227 39 151.587 39C151.267 39 150.987 39.24 150.987 39.84ZM159.384 50.36V40.92C159.384 37.4 161.784 34 166.024 34C170.264 34 172.864 37.68 172.864 41.32C172.864 43.24 172.864 43.48 172.384 43.52L167.144 43.8C166.864 43.84 166.664 43.56 166.664 43.32V40.36C166.664 39.88 166.344 39.56 166.024 39.56C165.744 39.56 165.384 39.88 165.384 40.36V51C165.384 51.48 165.744 51.8 166.064 51.8C166.344 51.8 166.664 51.48 166.664 51V48.44C166.664 48.2 166.824 48.04 167.104 48.04L172.424 48.32C172.704 48.36 172.864 48.56 172.864 48.8C172.864 51.52 172.864 58 165.864 58C162.024 58 159.384 55 159.384 50.36ZM174.794 51.72V40.64C174.794 40.48 174.714 40.36 174.554 40.36C173.714 40.36 173.634 40.36 173.634 40.08V34.24C173.634 34.12 173.714 34 173.794 34C174.714 34 174.794 34 174.794 33.72V30.2C174.794 30.04 174.914 29.92 175.074 29.92H180.834C181.234 29.92 181.234 30 181.234 30.28V33.64C181.234 33.88 181.354 34 181.554 34C182.794 34 182.914 34 182.914 34.28V40.08C182.914 40.24 182.794 40.36 182.634 40.36C181.394 40.36 181.234 40.36 181.234 40.68V51.2C181.234 51.36 181.354 51.52 181.474 51.52C182.874 51.52 183.034 51.52 183.034 51.76C183.034 54.04 183.034 58 178.954 58C176.554 58 174.794 56.52 174.794 51.72ZM184.234 57.68V34.32C184.234 34.12 184.314 34 184.474 34H190.114C190.354 34 190.634 35.28 190.834 35.28C190.914 35.28 190.994 35.2 191.074 35C191.474 34.04 192.354 34 193.594 34C193.714 34 193.834 34.12 193.834 34.28V40.04C193.834 40.2 193.754 40.32 193.554 40.32C191.514 40.32 190.714 41.4 190.714 44.64V57.64C190.714 57.84 190.554 58 190.354 58H184.514C184.354 58 184.234 57.88 184.234 57.68ZM194.97 51.76V40.2C194.97 36.52 197.73 34 201.85 34C205.97 34 208.73 36.48 208.73 40.4V51.76C208.73 55.48 205.97 58 201.85 58C197.77 58 194.97 55.44 194.97 51.76ZM201.21 41.2V50.72C201.21 51.2 201.41 51.52 201.85 51.52C202.29 51.52 202.49 51.2 202.49 50.72V41.2C202.49 40.76 202.25 40.4 201.85 40.4C201.41 40.4 201.21 40.76 201.21 41.2ZM215.893 58H210.413C210.253 58 210.093 57.84 210.093 57.6V34.28C210.093 34.12 210.213 34 210.373 34H215.373C215.653 34 215.973 35.68 216.133 35.68C216.173 35.68 216.253 35.64 216.413 35.44C217.133 34.52 217.853 34 219.533 34C221.493 34 223.453 35.52 223.453 38.24V57.8C223.453 57.92 223.373 58 223.253 58H217.733C217.573 58 217.453 57.88 217.453 57.72V41.36C217.453 40.76 217.133 40.56 216.813 40.56C216.493 40.56 216.173 40.76 216.173 41.36V57.76C216.173 57.92 216.093 58 215.893 58ZM231.534 34.4V57.68C231.534 57.84 231.414 58 231.254 58H225.374C225.214 58 225.054 57.8 225.054 57.64V34.48C225.054 34.2 225.214 34 225.454 34H231.134C231.374 34 231.534 34.2 231.534 34.4ZM231.134 27.2V32.32C231.134 32.56 230.974 32.76 230.734 32.76H225.854C225.654 32.76 225.454 32.52 225.454 32.28V27.32C225.454 27.12 225.654 26.88 225.854 26.88H230.774C230.934 26.88 231.134 27 231.134 27.2ZM232.9 50.36V40.92C232.9 37.4 235.3 34 239.54 34C243.78 34 246.38 37.68 246.38 41.32C246.38 43.24 246.38 43.48 245.9 43.52L240.66 43.8C240.38 43.84 240.18 43.56 240.18 43.32V40.36C240.18 39.88 239.86 39.56 239.54 39.56C239.26 39.56 238.9 39.88 238.9 40.36V51C238.9 51.48 239.26 51.8 239.58 51.8C239.86 51.8 240.18 51.48 240.18 51V48.44C240.18 48.2 240.34 48.04 240.62 48.04L245.94 48.32C246.22 48.36 246.38 48.56 246.38 48.8C246.38 51.52 246.38 58 239.38 58C235.54 58 232.9 55 232.9 50.36ZM260.109 42.04L255.349 42.32C255.149 42.36 255.029 42.2 255.029 41.96C255.029 40.72 254.749 40.08 254.149 40.08C253.829 40.08 253.549 40.36 253.549 40.8C253.549 41.64 254.749 42.84 256.949 44.84C259.309 46.92 260.309 48.64 260.309 51.2C260.309 54.64 258.589 58 253.709 58C251.029 58 247.429 56.52 247.429 49.8C247.429 49.6 247.549 49.44 247.709 49.44L252.069 49.16C252.229 49.16 252.349 49.28 252.389 49.44C252.469 50.88 252.949 51.76 253.549 51.76C253.909 51.76 254.109 51.48 254.109 51.08C254.109 50.12 252.589 48.6 250.349 46.72C248.709 45.4 247.269 43.24 247.269 40.24C247.269 36.68 250.109 34 253.669 34C258.469 34 260.509 37.72 260.509 41.68C260.509 41.88 260.309 42.04 260.109 42.04Z" fill="#241F56"/>
<path fill-rule="evenodd" clip-rule="evenodd" d="M12.3381 12.1915C12.3381 12.1915 6.06776 11.0852 6.73167 19.8639L9.5102 57.1183C9.5102 57.1183 10.7521 63.4258 16.1743 60.5487L51.2528 45.4995C51.2528 45.4995 54.5726 42.9976 52.3594 36.7239L45.3879 17.6138C45.3879 17.6138 43.5067 13.8514 40.0763 14.5153" fill="url(#paint0_linear_72_382)"/>
<path fill-rule="evenodd" clip-rule="evenodd" d="M26.7975 66.0626L56.3431 50.4599L48.597 73.8086C48.597 73.8086 47.0478 76.7963 43.8387 74.8045L26.7975 66.0626Z" fill="url(#paint1_linear_72_382)"/>
<path fill-rule="evenodd" clip-rule="evenodd" d="M59.1221 38.6701C48.7781 37.2502 38.4179 35.9516 28.0576 34.6545C25.5 34.3346 23.7739 35.8809 22.644 37.8644C19.5296 43.3307 16.5803 48.8921 13.5917 54.4297C13.4776 54.6415 13.3807 54.8758 13.3046 55.1161L17.1262 53.6905C19.6251 49.0191 22.1058 44.338 24.529 39.6267C25.1882 38.3472 25.898 37.8695 27.4238 38.1401C37.0363 39.846 46.6696 41.4367 56.2943 43.0743C58.9263 43.5217 59.2582 44.1559 58.4278 46.7193C55.4795 55.8225 52.5548 64.9339 49.6255 74.0433C48.7562 76.7458 47.4171 77.3449 44.9074 76.0939C39.1804 73.2389 31.7486 69.9184 26.023 67.0585L20.3596 70.2191C27.8047 74.5262 35.2434 78.8444 42.6886 83.1505C47.7906 86.1024 53.147 84.3297 55.1142 78.71C56.9258 73.5303 58.2783 68.1884 59.8107 62.9122C61.3252 57.6932 62.7643 52.4521 64.3226 47.2473C65.6361 42.8599 63.6288 39.2897 59.1221 38.6701Z" fill="#241F56"/>
<path fill-rule="evenodd" clip-rule="evenodd" d="M47.5159 47.8732C37.1972 52.3038 26.1954 57.3535 15.874 61.7772C11.8816 63.4889 8.89042 61.6388 8.61507 57.3055C8.40934 54.0619 8.14654 50.8219 7.90705 47.5802C7.13632 37.1572 6.34227 26.7358 5.60748 16.3101C5.38357 13.1337 7.37496 11.1138 10.5944 11.1471C11.9414 11.1611 13.2874 11.3232 14.633 11.4328C23.554 12.1605 32.4722 12.9288 41.3979 13.5999C43.9232 13.7897 45.5289 15.0697 46.3343 17.3154C48.5046 23.3703 50.5937 29.4545 52.6759 35.5403L54.8307 35.7057C52.7079 29.6215 50.3037 22.7481 47.9561 16.7501C46.6196 13.3351 44.0365 11.1481 40.1301 10.8905C38.1867 10.7624 36.2541 10.4695 34.3167 10.2495C34.3111 10.2488 34.305 10.2471 34.2994 10.2462L22.7979 8.85583C22.5226 8.86256 22.2312 8.84202 21.9192 8.79665C18.1115 8.24141 14.2799 7.85192 10.4579 7.39442C5.47962 6.79903 -0.534375 9.7301 0.0379495 17.0201C0.565744 23.7463 0.596384 30.5119 0.849254 37.2598C1.14623 45.2076 1.34725 53.1606 1.77218 61.1011C2.19138 68.9319 9.10237 73.0504 15.9147 69.5993C27.8674 63.5442 44.409 55.1139 56.3432 49.0213L47.5159 47.8732Z" fill="#2E2567"/>
<path fill-rule="evenodd" clip-rule="evenodd" d="M22.7978 9.29854L18.3135 1.40182L24.5848 9.51437L29.901 10.1571L34.0269 1.40182L31.5885 10.3612L22.7978 9.29854Z" fill="#2E2567"/>
<path fill-rule="evenodd" clip-rule="evenodd" d="M19.715 1.40224C19.715 2.17617 19.0878 2.8038 18.3136 2.8038C17.5394 2.8038 16.9118 2.17617 16.9118 1.40224C16.9118 0.628056 17.5394 0.000427246 18.3136 0.000427246C19.0878 0.000427246 19.715 0.628056 19.715 1.40224Z" fill="#2E2567"/>
<path fill-rule="evenodd" clip-rule="evenodd" d="M35.4288 1.40181C35.4288 2.17574 34.8016 2.80337 34.0275 2.80337C33.2533 2.80337 32.6257 2.17574 32.6257 1.40181C32.6257 0.627629 33.2533 0 34.0275 0C34.8016 0 35.4288 0.627629 35.4288 1.40181Z" fill="#2E2567"/>
<defs>
<linearGradient id="paint0_linear_72_382" x1="6.68249" y1="36.7236" x2="53.1201" y2="36.7236" gradientUnits="userSpaceOnUse">
<stop stop-color="#00BDF2"/>
<stop offset="1" stop-color="#DFF3FD"/>
</linearGradient>
<linearGradient id="paint1_linear_72_382" x1="26.7975" y1="62.9744" x2="56.3431" y2="62.9744" gradientUnits="userSpaceOnUse">
<stop stop-color="#00BDF2"/>
<stop offset="1" stop-color="#DFF3FD"/>
</linearGradient>
</defs>
</svg>
