<svg width="55" height="52" viewBox="0 0 55 52" fill="none" xmlns="http://www.w3.org/2000/svg">
<rect y="1" width="55" height="51" rx="6" fill="black"/>
<g filter="url(#filter0_d_72_375)">
<path d="M41.666 24.6663C41.3122 24.6663 40.9729 24.8068 40.7227 25.0568C40.4725 25.3069 40.332 25.646 40.332 25.9996C40.3428 29.0999 39.276 32.1077 37.3139 34.5089C35.3517 36.9101 32.616 38.5557 29.5745 39.1644C26.5329 39.773 23.3742 39.3069 20.6384 37.8458C17.9026 36.3847 15.7594 34.0192 14.5752 31.1537C13.391 28.2882 13.2393 25.1006 14.146 22.1357C15.0527 19.1708 16.9616 16.6127 19.5463 14.8986C22.1311 13.1846 25.2312 12.4209 28.3169 12.7383C31.4025 13.0556 34.2821 14.4343 36.4634 16.6385C36.4195 16.6505 36.375 16.6598 36.33 16.6665H32.328C31.9742 16.6665 31.6349 16.807 31.3847 17.057C31.1345 17.3071 30.994 17.6462 30.994 17.9998C30.994 18.3534 31.1345 18.6925 31.3847 18.9426C31.6349 19.1926 31.9742 19.3331 32.328 19.3331H36.33C37.3914 19.3331 38.4093 18.9117 39.1598 18.1616C39.9104 17.4114 40.332 16.394 40.332 15.3332V11.3333C40.332 10.9797 40.1915 10.6406 39.9413 10.3905C39.6911 10.1405 39.3518 10 38.998 10C38.6442 10 38.3049 10.1405 38.0547 10.3905C37.8045 10.6406 37.664 10.9797 37.664 11.3333V14.0866C34.9327 11.646 31.4461 10.2162 27.7869 10.0361C24.1276 9.85606 20.5174 10.9366 17.5594 13.0972C14.6014 15.2578 12.4749 18.3675 11.5352 21.9068C10.5956 25.446 10.8996 29.2004 12.3966 32.5426C13.8936 35.8847 16.4928 38.6121 19.76 40.2691C23.0271 41.9261 26.7642 42.4122 30.3469 41.6462C33.9295 40.8802 37.1406 38.9086 39.4436 36.0608C41.7466 33.2129 43.002 29.6614 43 25.9996C43 25.646 42.8595 25.3069 42.6093 25.0568C42.3591 24.8068 42.0198 24.6663 41.666 24.6663ZM26.992 17.9998C26.6382 17.9998 26.2989 18.1403 26.0487 18.3903C25.7985 18.6404 25.658 18.9795 25.658 19.3331V25.9996C25.6581 26.3532 25.7987 26.6923 26.0489 26.9422L30.0509 30.9421C30.3025 31.185 30.6394 31.3194 30.9892 31.3164C31.339 31.3133 31.6736 31.1731 31.9209 30.9259C32.1682 30.6787 32.3085 30.3443 32.3116 29.9947C32.3146 29.6451 32.1801 29.3083 31.9371 29.0569L28.326 25.4476V19.3331C28.326 18.9795 28.1855 18.6404 27.9353 18.3903C27.6851 18.1403 27.3458 17.9998 26.992 17.9998Z" fill="white"/>
</g>
<defs>
<filter id="filter0_d_72_375" x="1" y="0" width="52" height="52" filterUnits="userSpaceOnUse" color-interpolation-filters="sRGB">
<feFlood flood-opacity="0" result="BackgroundImageFix"/>
<feColorMatrix in="SourceAlpha" type="matrix" values="0 0 0 0 0 0 0 0 0 0 0 0 0 0 0 0 0 0 127 0" result="hardAlpha"/>
<feOffset/>
<feGaussianBlur stdDeviation="5"/>
<feComposite in2="hardAlpha" operator="out"/>
<feColorMatrix type="matrix" values="0 0 0 0 1 0 0 0 0 1 0 0 0 0 1 0 0 0 1 0"/>
<feBlend mode="normal" in2="BackgroundImageFix" result="effect1_dropShadow_72_375"/>
<feBlend mode="normal" in="SourceGraphic" in2="effect1_dropShadow_72_375" result="shape"/>
</filter>
</defs>
</svg>
