<svg width="55" height="51" viewBox="0 0 55 51" fill="none" xmlns="http://www.w3.org/2000/svg">
<rect width="55" height="51" rx="6" fill="black"/>
<g filter="url(#filter0_d_72_377)">
<path fill-rule="evenodd" clip-rule="evenodd" d="M16.5398 36.4602C15.2375 35.1579 14.8639 33.1714 15.2723 30.5649C13.1405 29.0106 12 27.3417 12 25.5C12 23.6583 13.1405 21.9894 15.2723 20.4351C14.8639 17.8286 15.2375 15.8421 16.5398 14.5398C17.8421 13.2375 19.8286 12.8639 22.4351 13.2723C23.9894 11.1405 25.6583 10 27.5 10C29.3417 10 31.0106 11.1405 32.5649 13.2723C35.1714 12.8639 37.1579 13.2375 38.4602 14.5398C39.7625 15.8421 40.1361 17.8286 39.7277 20.4351C41.8595 21.9894 43 23.6583 43 25.5C43 27.3417 41.8595 29.0106 39.7277 30.5649C40.1361 33.1714 39.7625 35.1579 38.4602 36.4602C37.1579 37.7625 35.1714 38.1361 32.5649 37.7277C31.0106 39.8595 29.3417 41 27.5 41C25.6583 41 23.9894 39.8595 22.4351 37.7277C19.8286 38.1361 17.8421 37.7625 16.5398 36.4602ZM22.7832 34.7972C23.3552 34.6747 23.9434 34.9183 24.2612 35.4094C25.5023 37.3269 26.6089 38.1818 27.5 38.1818C28.3911 38.1818 29.4977 37.3269 30.7388 35.4094C31.0566 34.9183 31.6448 34.6747 32.2168 34.7972C34.4503 35.2755 35.8373 35.0975 36.4674 34.4674C37.0975 33.8373 37.2755 32.4503 36.7972 30.2168C36.6747 29.6448 36.9183 29.0566 37.4094 28.7388C39.3269 27.4977 40.1818 26.3911 40.1818 25.5C40.1818 24.6089 39.3269 23.5023 37.4094 22.2612C36.9183 21.9434 36.6747 21.3552 36.7972 20.7832C37.2755 18.5497 37.0975 17.1627 36.4674 16.5326C35.8373 15.9025 34.4503 15.7245 32.2168 16.2028C31.6448 16.3253 31.0566 16.0817 30.7388 15.5906C29.4977 13.6731 28.3911 12.8182 27.5 12.8182C26.6089 12.8182 25.5023 13.6731 24.2612 15.5906C23.9434 16.0817 23.3552 16.3253 22.7832 16.2028C20.5497 15.7245 19.1627 15.9025 18.5326 16.5326C17.9025 17.1627 17.7245 18.5497 18.2028 20.7832C18.3253 21.3552 18.0817 21.9434 17.5906 22.2612C15.6731 23.5023 14.8182 24.6089 14.8182 25.5C14.8182 26.3911 15.6731 27.4977 17.5906 28.7388C18.0817 29.0566 18.3253 29.6448 18.2028 30.2168C17.7245 32.4503 17.9025 33.8373 18.5326 34.4674C19.1627 35.0975 20.5497 35.2755 22.7832 34.7972ZM26.0909 26.3254L32.14 20.2764L34.1327 22.2691L26.0909 30.3109L20.8673 25.0873L22.86 23.0945L26.0909 26.3254Z" fill="white"/>
</g>
<defs>
<filter id="filter0_d_72_377" x="2" y="0" width="51" height="51" filterUnits="userSpaceOnUse" color-interpolation-filters="sRGB">
<feFlood flood-opacity="0" result="BackgroundImageFix"/>
<feColorMatrix in="SourceAlpha" type="matrix" values="0 0 0 0 0 0 0 0 0 0 0 0 0 0 0 0 0 0 127 0" result="hardAlpha"/>
<feOffset/>
<feGaussianBlur stdDeviation="5"/>
<feComposite in2="hardAlpha" operator="out"/>
<feColorMatrix type="matrix" values="0 0 0 0 1 0 0 0 0 1 0 0 0 0 1 0 0 0 1 0"/>
<feBlend mode="normal" in2="BackgroundImageFix" result="effect1_dropShadow_72_377"/>
<feBlend mode="normal" in="SourceGraphic" in2="effect1_dropShadow_72_377" result="shape"/>
</filter>
</defs>
</svg>
