<svg width="56" height="55" viewBox="0 0 56 55" fill="none" xmlns="http://www.w3.org/2000/svg">
<rect y="2" width="55" height="51" rx="6" fill="black"/>
<g filter="url(#filter0_d_72_380)">
<path fill-rule="evenodd" clip-rule="evenodd" d="M28.5 13.3023C20.6588 13.3023 14.3023 19.6588 14.3023 27.5C14.3023 35.3411 20.6588 41.6977 28.5 41.6977C36.3411 41.6977 42.6977 35.3411 42.6977 27.5C42.6977 19.6588 36.3411 13.3023 28.5 13.3023ZM12 27.5C12 18.3873 19.3873 11 28.5 11C37.6128 11 45 18.3873 45 27.5C45 36.6128 37.6128 44 28.5 44C19.3873 44 12 36.6128 12 27.5ZM28.5 17.1395C29.1357 17.1395 29.6512 17.6549 29.6512 18.2907V18.7768C32.1536 19.2249 34.2558 21.1051 34.2558 23.6628C34.2558 24.2986 33.7404 24.814 33.1047 24.814C32.4689 24.814 31.9535 24.2986 31.9535 23.6628C31.9535 22.3669 30.6128 20.9767 28.5 20.9767C26.3872 20.9767 25.0465 22.3669 25.0465 23.6628C25.0465 24.9587 26.3872 26.3488 28.5 26.3488C31.4734 26.3488 34.2558 28.3945 34.2558 31.3372C34.2558 33.8949 32.1536 35.775 29.6512 36.2232V36.7093C29.6512 37.3451 29.1357 37.8605 28.5 37.8605C27.8643 37.8605 27.3488 37.3451 27.3488 36.7093V36.2232C24.8463 35.775 22.7442 33.8949 22.7442 31.3372C22.7442 30.7015 23.2596 30.186 23.8953 30.186C24.5311 30.186 25.0465 30.7015 25.0465 31.3372C25.0465 32.6331 26.3872 34.0233 28.5 34.0233C30.6128 34.0233 31.9535 32.6331 31.9535 31.3372C31.9535 30.0413 30.6128 28.6512 28.5 28.6512C25.5266 28.6512 22.7442 26.6055 22.7442 23.6628C22.7442 21.1051 24.8463 19.2249 27.3488 18.7768V18.2907C27.3488 17.6549 27.8643 17.1395 28.5 17.1395Z" fill="white"/>
</g>
<defs>
<filter id="filter0_d_72_380" x="1.9" y="0.9" width="53.2" height="53.2" filterUnits="userSpaceOnUse" color-interpolation-filters="sRGB">
<feFlood flood-opacity="0" result="BackgroundImageFix"/>
<feColorMatrix in="SourceAlpha" type="matrix" values="0 0 0 0 0 0 0 0 0 0 0 0 0 0 0 0 0 0 127 0" result="hardAlpha"/>
<feOffset/>
<feGaussianBlur stdDeviation="5.05"/>
<feComposite in2="hardAlpha" operator="out"/>
<feColorMatrix type="matrix" values="0 0 0 0 1 0 0 0 0 1 0 0 0 0 1 0 0 0 1 0"/>
<feBlend mode="normal" in2="BackgroundImageFix" result="effect1_dropShadow_72_380"/>
<feBlend mode="normal" in="SourceGraphic" in2="effect1_dropShadow_72_380" result="shape"/>
</filter>
</defs>
</svg>
