<svg width="55" height="54" viewBox="0 0 55 54" fill="none" xmlns="http://www.w3.org/2000/svg">
<rect y="2" width="55" height="51" rx="6" fill="black"/>
<g filter="url(#filter0_d_72_379)">
<path fill-rule="evenodd" clip-rule="evenodd" d="M25.8 27.2C25.8 28.0832 25.0832 28.8 24.2 28.8C23.3168 28.8 22.6 28.0832 22.6 27.2C22.6 26.3168 23.3168 25.6 24.2 25.6C25.0832 25.6 25.8 26.3168 25.8 27.2ZM33.4 39.8H20.6V15.8C20.6 14.9168 21.3168 14.2 22.2 14.2H31.8C32.6832 14.2 33.4 14.9168 33.4 15.8V39.8ZM41.4 39.8H36.6V14.2C36.6 12.432 35.168 11 33.4 11H20.6C18.8336 11 17.4 12.432 17.4 14.2V39.8H12.6C11.7168 39.8 11 40.5168 11 41.4C11 42.2832 11.7168 43 12.6 43H41.4C42.2832 43 43 42.2832 43 41.4C43 40.5168 42.2832 39.8 41.4 39.8Z" fill="white"/>
</g>
<defs>
<filter id="filter0_d_72_379" x="0.6" y="0.6" width="52.8" height="52.8" filterUnits="userSpaceOnUse" color-interpolation-filters="sRGB">
<feFlood flood-opacity="0" result="BackgroundImageFix"/>
<feColorMatrix in="SourceAlpha" type="matrix" values="0 0 0 0 0 0 0 0 0 0 0 0 0 0 0 0 0 0 127 0" result="hardAlpha"/>
<feOffset/>
<feGaussianBlur stdDeviation="5.2"/>
<feComposite in2="hardAlpha" operator="out"/>
<feColorMatrix type="matrix" values="0 0 0 0 1 0 0 0 0 1 0 0 0 0 1 0 0 0 1 0"/>
<feBlend mode="normal" in2="BackgroundImageFix" result="effect1_dropShadow_72_379"/>
<feBlend mode="normal" in="SourceGraphic" in2="effect1_dropShadow_72_379" result="shape"/>
</filter>
</defs>
</svg>
