<svg width="55" height="51" viewBox="0 0 55 51" fill="none" xmlns="http://www.w3.org/2000/svg">
<rect width="55" height="51" rx="6" fill="black"/>
<g filter="url(#filter0_d_72_378)">
<g filter="url(#filter1_d_72_378)">
<path d="M23.5667 30.1334C24.7289 30.9948 26.1423 31.5 27.6667 31.5C29.1911 31.5 30.6045 30.9948 31.7667 30.1334" stroke="white" stroke-width="2" stroke-linecap="round" shape-rendering="crispEdges"/>
</g>
<g filter="url(#filter2_d_72_378)">
<path d="M33.1334 22.6167C33.1334 23.7488 32.5215 24.6667 31.7667 24.6667C31.0119 24.6667 30.4 23.7488 30.4 22.6167C30.4 21.4845 31.0119 20.5667 31.7667 20.5667C32.5215 20.5667 33.1334 21.4845 33.1334 22.6167Z" fill="white"/>
</g>
<g filter="url(#filter3_d_72_378)">
<path d="M23.5667 24.6667C24.3215 24.6667 24.9333 23.7488 24.9333 22.6167C24.9333 21.4845 24.3215 20.5667 23.5667 20.5667C22.8119 20.5667 22.2 21.4845 22.2 22.6167C22.2 23.7488 22.8119 24.6667 23.5667 24.6667Z" fill="white"/>
</g>
<path d="M20.8333 12.8284C22.8435 11.6655 25.1774 11 27.6667 11C35.2145 11 41.3334 17.1188 41.3334 24.6667C41.3334 32.2145 35.2145 38.3334 27.6667 38.3334C20.1188 38.3334 14 32.2145 14 24.6667C14 22.1774 14.6655 19.8435 15.8284 17.8333" stroke="white" stroke-width="2" stroke-linecap="round"/>
</g>
<defs>
<filter id="filter0_d_72_378" x="3" y="0" width="49.3334" height="49.3334" filterUnits="userSpaceOnUse" color-interpolation-filters="sRGB">
<feFlood flood-opacity="0" result="BackgroundImageFix"/>
<feColorMatrix in="SourceAlpha" type="matrix" values="0 0 0 0 0 0 0 0 0 0 0 0 0 0 0 0 0 0 127 0" result="hardAlpha"/>
<feOffset/>
<feGaussianBlur stdDeviation="5"/>
<feComposite in2="hardAlpha" operator="out"/>
<feColorMatrix type="matrix" values="0 0 0 0 1 0 0 0 0 1 0 0 0 0 1 0 0 0 1 0"/>
<feBlend mode="normal" in2="BackgroundImageFix" result="effect1_dropShadow_72_378"/>
<feBlend mode="normal" in="SourceGraphic" in2="effect1_dropShadow_72_378" result="shape"/>
</filter>
<filter id="filter1_d_72_378" x="18.5666" y="25.1333" width="18.2001" height="11.3667" filterUnits="userSpaceOnUse" color-interpolation-filters="sRGB">
<feFlood flood-opacity="0" result="BackgroundImageFix"/>
<feColorMatrix in="SourceAlpha" type="matrix" values="0 0 0 0 0 0 0 0 0 0 0 0 0 0 0 0 0 0 127 0" result="hardAlpha"/>
<feOffset/>
<feGaussianBlur stdDeviation="2"/>
<feComposite in2="hardAlpha" operator="out"/>
<feColorMatrix type="matrix" values="0 0 0 0 1 0 0 0 0 1 0 0 0 0 1 0 0 0 1 0"/>
<feBlend mode="normal" in2="BackgroundImageFix" result="effect1_dropShadow_72_378"/>
<feBlend mode="normal" in="SourceGraphic" in2="effect1_dropShadow_72_378" result="shape"/>
</filter>
<filter id="filter2_d_72_378" x="26.4" y="16.5667" width="10.7333" height="12.1" filterUnits="userSpaceOnUse" color-interpolation-filters="sRGB">
<feFlood flood-opacity="0" result="BackgroundImageFix"/>
<feColorMatrix in="SourceAlpha" type="matrix" values="0 0 0 0 0 0 0 0 0 0 0 0 0 0 0 0 0 0 127 0" result="hardAlpha"/>
<feOffset/>
<feGaussianBlur stdDeviation="2"/>
<feComposite in2="hardAlpha" operator="out"/>
<feColorMatrix type="matrix" values="0 0 0 0 1 0 0 0 0 1 0 0 0 0 1 0 0 0 1 0"/>
<feBlend mode="normal" in2="BackgroundImageFix" result="effect1_dropShadow_72_378"/>
<feBlend mode="normal" in="SourceGraphic" in2="effect1_dropShadow_72_378" result="shape"/>
</filter>
<filter id="filter3_d_72_378" x="18.2" y="16.5667" width="10.7333" height="12.1" filterUnits="userSpaceOnUse" color-interpolation-filters="sRGB">
<feFlood flood-opacity="0" result="BackgroundImageFix"/>
<feColorMatrix in="SourceAlpha" type="matrix" values="0 0 0 0 0 0 0 0 0 0 0 0 0 0 0 0 0 0 127 0" result="hardAlpha"/>
<feOffset/>
<feGaussianBlur stdDeviation="2"/>
<feComposite in2="hardAlpha" operator="out"/>
<feColorMatrix type="matrix" values="0 0 0 0 1 0 0 0 0 1 0 0 0 0 1 0 0 0 1 0"/>
<feBlend mode="normal" in2="BackgroundImageFix" result="effect1_dropShadow_72_378"/>
<feBlend mode="normal" in="SourceGraphic" in2="effect1_dropShadow_72_378" result="shape"/>
</filter>
</defs>
</svg>
